<svg xmlns="http://www.w3.org/2000/svg" xmlns:xlink="http://www.w3.org/1999/xlink" width="32" height="32" version="1.1" viewBox="0 0 32 32"><path fill="#444" d="M26.607 22.649q0 0.714-0.501 1.214l-2.429 2.429q-0.501 0.501-1.214 0.501t-1.214-0.501l-5.25-5.25-5.25 5.25q-0.501 0.501-1.214 0.501t-1.214-0.501l-2.429-2.429q-0.501-0.501-0.501-1.214t0.501-1.214l5.25-5.25-5.25-5.25q-0.501-0.501-0.501-1.214t0.501-1.214l2.429-2.429q0.501-0.501 1.214-0.501t1.214 0.501l5.25 5.25 5.25-5.25q0.501-0.501 1.214-0.501t1.214 0.501l2.429 2.429q0.501 0.501 0.501 1.214t-0.501 1.214l-5.25 5.25 5.25 5.25q0.501 0.501 0.501 1.214z"/></svg>