<svg xmlns="http://www.w3.org/2000/svg" xmlns:xlink="http://www.w3.org/1999/xlink" width="32" height="32" version="1.1" viewBox="0 0 32 32"><path fill="#444" d="M4.535 4.4c0-0.246 0.094-0.491 0.281-0.679s0.433-0.281 0.679-0.281h7.079c0.246 0 0.491 0.094 0.679 0.281s0.281 0.433 0.281 0.679v22.078c0 0.246-0.094 0.491-0.281 0.679s-0.433 0.281-0.679 0.281h-7.079c-0.246 0-0.491-0.094-0.679-0.281s-0.281-0.433-0.281-0.679v-22.078zM19.533 4.4c0-0.246 0.094-0.491 0.281-0.679s0.433-0.281 0.679-0.281h7.079c0.246 0 0.491 0.094 0.679 0.281s0.281 0.433 0.281 0.679v22.078c0 0.246-0.094 0.491-0.281 0.679s-0.433 0.281-0.679 0.281h-7.079c-0.246 0-0.491-0.094-0.679-0.281s-0.281-0.433-0.281-0.679v-22.078z"/></svg>